PathFileType	4	(X/Y/Z)	C:\ABL_Data\ExoAging\Piloting\Dec 6 2019\Generated_files\static_2.trc
DataRate	CameraRate	NumFrames	NumMarkers	Units	OrigDataRate	OrigDataStartFrame	OrigNumFrames
100.00	100.00	       18	20	mm	100.00	72	       568
Frame#	Time	R.Acromium			L.Acromium			Sternum			R.ASIS			R.PSIS			S2			L.PSIS			L.ASIS			R.Knee			R.Ankle			L.Knee			L.Ankle			R.MKnee			R.MAnkle			L.MKnee			L.MAnkle			C7			T12			Clav			R.Back			
		X1	Y1	Z1	X2	Y2	Z2	X3	Y3	Z3	X4	Y4	Z4	X5	Y5	Z5	X6	Y6	Z6	X7	Y7	Z7	X8	Y8	Z8	X9	Y9	Z9	X10	Y10	Z10	X11	Y11	Z11	X12	Y12	Z12	X13	Y13	Z13	X14	Y14	Z14	X15	Y15	Z15	X16	Y16	Z16	X17	Y17	Z17	X18	Y18	Z18	X19	Y19	Z19	X20	Y20	Z20	

72	0.710	837.94568	383.75073	1496.77954	846.23950	790.12219	1485.74158				914.86487	448.59592	1005.24567	731.13287	526.42487	1046.32336	712.86066	580.36261	1022.02521	734.83246	629.90686	1050.00232	920.57635	707.83978	1018.16449	819.60986	382.72937	512.51892	759.23047	378.50623	86.55602	820.20465	764.59863	509.52618	766.83014	775.41296	78.96611	841.50873	494.93414	489.34277	803.87244	458.46097	92.10282	830.67242	651.54633	486.79056	783.91284	685.28345	93.53852	755.25525	573.04340	1555.02942	735.12689	580.99719	1186.79309	917.53754	578.62811	1461.75110	692.37488	457.14679	1393.97937	
73	0.720	837.95123	383.71707	1496.75293	846.22308	790.12939	1485.71729				914.92114	448.55045	1005.24524	731.12421	526.38843	1046.27222	712.83240	580.35547	1021.99084	734.80225	629.85260	1049.95056	920.60986	707.81873	1018.16858	819.65479	382.68225	512.43097	759.21954	378.48932	86.54057	820.18359	764.64911	509.50998	766.84174	775.40759	78.95926	841.53253	494.89584	489.30042	803.87677	458.48593	92.07092	830.74530	651.53540	486.77258	783.94025	685.27417	93.53857	755.22961	573.06158	1554.98059	735.12207	580.99835	1186.78125	917.51514	578.59467	1461.67542	692.37122	457.15237	1393.93591	
74	0.730	837.96857	383.87045	1496.74829	846.41034	789.66333	1485.18884				914.95233	448.56943	1005.24371	731.13428	526.35950	1046.28320	712.87073	580.32068	1021.99664	734.86371	629.84094	1049.98792	920.62189	707.79633	1018.14453	819.66742	382.71814	512.53070	759.23718	378.52234	86.55173	820.17542	764.62463	509.50623	766.85144	775.40601	78.93186	841.58362	494.88785	489.29303	803.87592	458.47620	92.03634	830.76691	651.50745	486.81177	783.94922	685.29016	93.49750	755.19049	573.04272	1554.99280	735.13879	580.93762	1186.78210	917.49695	578.62219	1461.68005	692.37305	457.18588	1393.94373	
75	0.740	837.89197	383.67773	1496.83765	846.12451	790.13782	1485.56458				914.96796	448.55255	1005.26599	731.16364	526.37164	1046.29175	712.86133	580.34229	1021.98456	734.82385	629.82861	1049.96484	920.62518	707.76630	1018.14001	819.73395	382.65222	512.48639	759.23145	378.52393	86.59109	820.25269	764.57721	509.46539	766.83862	775.38885	78.95582	841.59949	494.89212	489.30563	803.88507	458.48428	92.10383	830.76740	651.53613	486.81622	783.91901	685.28796	93.54449	755.19354	573.04596	1555.00952	735.11407	581.00549	1186.78076	917.48596	578.67706	1461.66345	692.89563	457.20993	1393.78772	
76	0.750	837.98334	383.91000	1496.76672	846.38397	789.67029	1485.11926				914.98376	448.51483	1005.25244	731.19550	526.35559	1046.27356	712.89685	580.25592	1022.00378	734.86346	629.81042	1049.94592	920.65637	707.76691	1018.16046	819.73816	382.62866	512.46222	759.23627	378.51926	86.60593	820.24646	764.60114	509.51270	766.82977	775.39227	78.94010	841.64050	494.90518	489.32132	803.87958	458.49667	92.08511	830.80518	651.50085	486.89694	783.90216	685.27179	93.55630	755.19427	573.04315	1554.99927	735.15894	580.94635	1186.79126	917.44110	578.62439	1461.64148	692.37695	457.16431	1393.91016	
77	0.760	837.93988	383.73087	1496.72876	846.33429	789.62616	1485.12341				915.01105	448.48383	1005.26184	731.22241	526.29211	1046.27710	712.90222	580.21326	1022.02026	734.89813	629.77161	1049.92969	920.67731	707.74567	1018.17194	819.73969	382.65088	512.51184	759.24518	378.51331	86.60894	820.26813	764.57196	509.53375	766.84247	775.41449	78.94331	841.57782	494.86154	489.32428	803.88428	458.47720	92.09782	830.80859	651.51031	486.81699	783.90741	685.24976	93.54661	755.16400	573.10791	1554.99072	735.15509	580.95728	1186.78052	917.42371	578.61041	1461.65601	692.89899	457.25967	1393.74646	
78	0.770	837.89685	383.66724	1496.80823	846.28711	789.66278	1485.12732				915.07086	448.46811	1005.28088	731.22845	526.31067	1046.26343	712.94324	580.22473	1022.01910	734.90222	629.74536	1049.95483	920.73486	707.72437	1018.14014	819.75201	382.65704	512.55414	759.24725	378.51059	86.58766	820.26965	764.50250	509.47931	766.84802	775.40656	78.95107	841.57397	494.86765	489.31912	803.89532	458.49567	92.10538	830.82538	651.49170	486.75674	783.93774	685.28259	93.52357	755.13885	573.06598	1554.98511	735.20844	580.87958	1186.75598	917.43201	578.56744	1461.65527	692.90735	457.23380	1393.74084	
79	0.780	837.91492	383.73740	1496.76953	846.01013	790.10443	1485.52808				915.03064	448.47015	1005.24286	731.23511	526.32385	1046.23206	712.94958	580.21436	1022.00110	734.92926	629.73419	1049.89990	920.70630	707.72626	1018.13403	819.71960	382.63672	512.49628	759.24658	378.49228	86.53564	820.30182	764.54529	509.48453	766.85229	775.37708	78.94646	841.60809	494.87610	489.31821	803.88300	458.47699	92.08788	830.82007	651.48602	486.74741	783.94922	685.24957	93.53220	755.13574	573.07941	1554.97839	735.21991	580.89099	1186.71643	917.39709	578.62952	1461.60571	692.40564	457.11411	1393.88196	
80	0.790	837.97894	383.84088	1496.79578	845.95404	790.08527	1485.46875				915.05402	448.42688	1005.25610	731.24768	526.27960	1046.23877	712.95422	580.19391	1021.99286	734.93512	629.76935	1049.92456	920.72168	707.69855	1018.14667	819.73706	382.63559	512.50439	759.23010	378.48532	86.55458	820.30151	764.49615	509.46841	766.84131	775.39575	78.96309	841.55035	494.86209	489.32458	803.86676	458.50061	92.09099	830.80200	651.45496	486.77597	783.92310	685.26178	93.53298	755.12384	573.11371	1554.94275	735.20471	580.90436	1186.69592	917.37500	578.61450	1461.56018	692.93585	457.25430	1393.68335	
81	0.800	837.87128	383.69846	1496.85205	846.15625	789.64691	1485.03284				915.08197	448.41977	1005.28174	731.28625	526.27820	1046.24829	712.96075	580.15002	1022.00952	734.97894	629.73523	1049.93494	920.71167	707.69049	1018.12506	819.76227	382.61578	512.50653	759.23218	378.48907	86.57156	820.29688	764.52545	509.46371	766.83325	775.37976	78.96068	841.56122	494.83737	489.31235	803.85004	458.48257	92.07404	830.81836	651.47046	486.77441	783.90826	685.24744	93.53983	755.11414	573.13031	1554.92444	735.24658	580.85187	1186.68909	917.34344	578.70953	1461.54187	692.91534	457.23944	1393.69104	
82	0.810	837.94000	383.90628	1496.72021	846.10229	789.68170	1485.03101				915.07794	448.39200	1005.26416	731.27631	526.29230	1046.25635	712.98956	580.14569	1022.02289	735.16669	629.81531	1049.80029	920.77167	707.67560	1018.10706	819.74286	382.63043	512.48077	759.23645	378.48666	86.60745	820.31329	764.52972	509.49957	766.83197	775.37445	78.94830	841.64636	494.84207	489.31329	803.85223	458.48605	92.07234	830.83862	651.47278	486.80807	783.89362	685.26062	93.53651	755.10443	573.15381	1554.94189	735.23279	580.83319	1186.72131	917.31702	578.67926	1461.54346	692.38239	457.14322	1393.85144	
83	0.820	837.91620	383.76187	1496.74255	845.84570	790.03912	1485.44409				915.07050	448.38495	1005.23053	731.29578	526.21747	1046.26575	712.98383	580.15607	1022.00909	734.98035	629.69653	1049.93115	920.84338	707.62964	1018.13684	819.73309	382.63342	512.47742	759.24023	378.46762	86.59330	820.33441	764.47357	509.48364	766.83875	775.39783	78.96385	841.63800	494.83450	489.32993	803.88177	458.49133	92.10377	830.86273	651.46265	486.77948	783.93048	685.24927	93.52103	755.06567	573.07867	1554.96350	735.24628	580.81696	1186.72668	917.29462	578.64417	1461.55811	692.37531	457.13864	1393.85498	
84	0.830	837.90521	383.72110	1496.79492	845.80518	790.00836	1485.43127				915.11029	448.37744	1005.24591	731.28870	526.19702	1046.25635	712.92969	580.08258	1022.05859	735.18359	629.74701	1049.79871	920.86584	707.61267	1018.14038	819.75745	382.58435	512.47943	759.25043	378.50858	86.53352	820.32092	764.48798	509.52216	766.86383	775.37488	78.96252	841.64581	494.82233	489.32416	803.88007	458.48471	92.10042	830.87048	651.44727	486.73453	783.97034	685.24292	93.48808	755.05334	573.02301	1554.99097	735.24463	580.82275	1186.71045	917.28589	578.58362	1461.57190	692.37054	457.13681	1393.83374	
85	0.840	837.89160	383.72485	1496.69812	845.79700	790.05377	1485.37305				915.10712	448.35809	1005.24677	731.29950	526.20483	1046.23108	712.99341	580.09875	1022.00140	735.19995	629.72186	1049.75037	920.85181	707.57916	1018.08673	819.78259	382.59702	512.47491	759.24414	378.46811	86.56755	820.31195	764.49615	509.51062	766.85736	775.36041	78.94377	841.65607	494.79083	489.29996	803.89874	458.47348	92.05943	830.84131	651.44324	486.73538	783.96533	685.24963	93.49393	755.05536	573.13263	1554.93372	735.29803	580.77655	1186.64380	917.25183	578.70483	1461.53955	692.37946	457.13824	1393.79553	
86	0.850	837.88177	383.76279	1496.67578	845.76752	790.00134	1485.34998				915.07587	448.33273	1005.23486	731.30872	526.20813	1046.20789	713.00287	580.10968	1021.97418	735.22510	629.72760	1049.71399	920.86572	707.59192	1018.10522	819.70190	382.58734	512.45514	759.23206	378.50299	86.50133	820.32513	764.45593	509.47736	766.85040	775.40686	78.95295	841.58258	494.82950	489.36783	803.90625	458.46918	92.11304	830.82690	651.43140	486.70355	783.95038	685.25183	93.48183	755.04364	573.06982	1554.92578	735.28247	580.82935	1186.62988	917.21832	578.65100	1461.51001	692.36316	457.10016	1393.76538	
87	0.860	837.83777	383.68948	1496.77832	845.72235	790.02167	1485.32153				915.05414	448.31973	1005.24994	731.27570	526.23090	1046.20239	712.99603	580.10883	1021.98779	735.19629	629.76074	1049.73645	920.79803	707.55371	1018.13666	819.72644	382.56131	512.50427	759.23383	378.48090	86.56771	820.32233	764.48456	509.48761	766.83344	775.38318	78.96359	841.59882	494.80573	489.33237	803.87604	458.48538	92.07682	830.83826	651.43127	486.72635	783.94379	685.23151	93.50669	755.01184	573.04108	1554.92175	735.26874	580.83301	1186.62292	917.20270	578.61176	1461.47620	692.35175	457.09085	1393.76758	
88	0.870	837.83673	383.78961	1496.72314	845.74469	789.89423	1485.29211				915.05750	448.29611	1005.24854	731.27112	526.22852	1046.22229	712.98773	580.11279	1022.01349	734.98169	629.71967	1049.89856	920.78400	707.52301	1018.11224	819.74890	382.57376	512.48022	759.21759	378.49530	86.58561	820.27045	764.48505	509.46780	766.80841	775.40704	78.96046	841.57819	494.79807	489.29117	803.86786	458.49060	92.07595	830.80518	651.40753	486.73529	783.91577	685.22754	93.52161	754.99518	573.01263	1554.93005	735.23340	580.76965	1186.65857	917.17090	578.59576	1461.54199	692.33136	457.11456	1393.77673	
89	0.880	837.79333	383.63397	1496.66577	845.57831	790.08185	1485.26038				915.02289	448.27261	1005.26331	731.25946	526.19220	1046.22607	712.90454	580.08795	1022.02325	735.19977	629.73071	1049.74597	920.85016	707.51086	1018.16241	819.71289	382.52893	512.44257	759.21759	378.49753	86.55759	820.28241	764.45941	509.48035	766.81854	775.39307	78.94115	841.58203	494.83505	489.35321	803.88953	458.46249	92.06715	830.80188	651.41675	486.75491	783.90662	685.23138	93.53198	754.99835	573.05048	1554.93433	735.25085	580.82965	1186.66785	917.13995	578.56842	1461.54688	692.34308	457.06393	1393.77148	
